<svg xmlns="http://www.w3.org/2000/svg" width="360" height="540" viewBox="0 0 360 540" role="img" aria-label="Capa demonstrativa de Duna">
  <defs>
    <linearGradient id="bg" x1="0" y1="0" x2="1" y2="1">
      <stop offset="0" stop-color="#4a1d0b"/>
      <stop offset="0.58" stop-color="#9a3412"/>
      <stop offset="1" stop-color="#fbbf24"/>
    </linearGradient>
    <radialGradient id="glow" cx="72%" cy="16%" r="70%">
      <stop offset="0" stop-color="#ffffff" stop-opacity=".34"/>
      <stop offset="1" stop-color="#ffffff" stop-opacity="0"/>
    </radialGradient>
  </defs>
  <rect width="360" height="540" rx="22" fill="url(#bg)"/>
  <rect width="360" height="540" rx="22" fill="url(#glow)"/>
  <path d="M-40 430C70 350 130 510 250 430s160-20 190 40v100H-40z" fill="#ffffff" opacity=".08"/>
  <rect x="22" y="22" width="316" height="496" rx="18" fill="none" stroke="#ffffff" stroke-opacity=".36" stroke-width="3"/>
  <rect x="42" y="42" width="276" height="142" rx="18" fill="#000000" opacity=".26"/>
  <text x="180" y="74" text-anchor="middle" font-family="Arial, Helvetica, sans-serif" font-size="32" font-weight="900" fill="#fff">Duna</text>
  <g opacity=".95"><path d="M74 328c42-62 92-62 148 0 24-34 48-52 76-38" fill="none" stroke="#fff" stroke-width="5" stroke-linecap="round"/><circle cx="252" cy="200" r="10" fill="#fde68a" opacity=".65"/><path d="M86 356c54 18 132 18 188 0" stroke="#fff" stroke-width="3" opacity=".6"/></g>
  <rect x="58" y="436" width="244" height="58" rx="14" fill="#000000" opacity=".34"/>
  <text x="180" y="468" text-anchor="middle" font-family="Arial, Helvetica, sans-serif" font-size="18" font-weight="700" fill="#fff" fill-opacity=".94">Frank Herbert</text>
</svg>
