<svg xmlns="http://www.w3.org/2000/svg" width="360" height="540" viewBox="0 0 360 540" role="img" aria-label="Capa demonstrativa de O Retorno do Rei">
  <defs>
    <linearGradient id="bg" x1="0" y1="0" x2="1" y2="1">
      <stop offset="0" stop-color="#3b1f12"/>
      <stop offset="0.58" stop-color="#7c2d12"/>
      <stop offset="1" stop-color="#f59e0b"/>
    </linearGradient>
    <radialGradient id="glow" cx="72%" cy="16%" r="70%">
      <stop offset="0" stop-color="#ffffff" stop-opacity=".34"/>
      <stop offset="1" stop-color="#ffffff" stop-opacity="0"/>
    </radialGradient>
  </defs>
  <rect width="360" height="540" rx="22" fill="url(#bg)"/>
  <rect width="360" height="540" rx="22" fill="url(#glow)"/>
  <path d="M-40 430C70 350 130 510 250 430s160-20 190 40v100H-40z" fill="#ffffff" opacity=".08"/>
  <rect x="22" y="22" width="316" height="496" rx="18" fill="none" stroke="#ffffff" stroke-opacity=".36" stroke-width="3"/>
  <rect x="42" y="42" width="276" height="142" rx="18" fill="#000000" opacity=".26"/>
  <text x="180" y="66" text-anchor="middle" font-family="Arial, Helvetica, sans-serif" font-size="28" font-weight="900" fill="#fff">O Retorno</text>
  <text x="180" y="98" text-anchor="middle" font-family="Arial, Helvetica, sans-serif" font-size="28" font-weight="900" fill="#fff">do Rei</text>
  <g opacity=".95"><path d="M96 330h168l-30-78-36 42-38-82-38 82-36-42z" fill="none" stroke="#fff" stroke-width="5" stroke-linejoin="round"/><path d="M120 350h120" stroke="#fff" stroke-width="4" stroke-linecap="round" opacity=".7"/></g>
  <rect x="58" y="436" width="244" height="58" rx="14" fill="#000000" opacity=".34"/>
  <text x="180" y="468" text-anchor="middle" font-family="Arial, Helvetica, sans-serif" font-size="18" font-weight="700" fill="#fff" fill-opacity=".94">J. R. R. Tolkien</text>
</svg>
